<svg width="76" height="76" viewBox="0 0 76 76" fill="none" xmlns="http://www.w3.org/2000/svg">
<path d="M37.8198 75.168C58.2631 75.168 75.0478 58.3868 75.0478 37.9434C75.0478 17.5 58.2596 0.71875 37.8162 0.71875C17.3309 0.71875 0.595093 17.5 0.595093 37.9434C0.595093 58.3868 17.3344 75.168 37.8198 75.168ZM16.0482 33.8261C16.0482 33.4706 16.2016 33.1993 16.5082 32.9449L34.7709 17.6073C36.6581 16.0551 39.0825 16.0551 40.9243 17.6073L51.5345 26.6064V21.3721C51.5345 20.8916 51.8583 20.5746 52.29 20.5746H53.6835C54.1186 20.5746 54.4389 20.8916 54.4389 21.3721V28.9916L59.0961 32.9449C59.4027 33.1993 59.5527 33.4638 59.5527 33.833C59.5527 34.4111 59.0791 34.8292 58.5463 34.8292C58.3134 34.8292 58.1429 34.7076 57.8294 34.4952L39.6034 19.1386C38.3432 18.0702 37.3974 18.0634 36.0883 19.1386L17.768 34.4952C17.5522 34.7076 17.3329 34.8292 17.058 34.8292C16.5116 34.8292 16.0482 34.394 16.0482 33.8261ZM21.2529 52.2481V33.1582L36.5536 20.3228C37.4256 19.5972 38.2172 19.5938 39.0893 20.3228L54.4389 33.2037V52.2481C54.4389 54.4092 53.1738 55.6744 51.0932 55.6744H24.644C22.518 55.6744 21.2529 54.4092 21.2529 52.2481ZM32.9028 53.7739H42.747V40.7232C42.747 40.0157 42.2519 39.6045 41.5829 39.6045H34.0634C33.4013 39.6045 32.9028 40.0157 32.9028 40.7232V53.7739Z" fill="black"/>
</svg>
