<svg width="40" height="40" viewBox="0 0 40 40" fill="none" xmlns="http://www.w3.org/2000/svg">
<path d="M20 37.5C10.335 37.5 2.5 29.665 2.5 20C2.5 10.335 10.335 2.5 20 2.5C29.665 2.5 37.5 10.335 37.5 20C37.5 29.665 29.665 37.5 20 37.5ZM20 40C31.0457 40 40 31.0457 40 20C40 8.95431 31.0457 0 20 0C8.95431 0 0 8.95431 0 20C0 31.0457 8.95431 40 20 40Z" fill="#393939"/>
<path d="M15.678 12.6385C16.0944 12.4243 16.5955 12.4607 16.9765 12.7328L25.7265 18.9828C26.055 19.2175 26.25 19.5963 26.25 20C26.25 20.4037 26.055 20.7825 25.7265 21.0172L16.9765 27.2672C16.5955 27.5393 16.0944 27.5757 15.678 27.3615C15.2617 27.1472 15 26.7182 15 26.25V13.75C15 13.2818 15.2617 12.8528 15.678 12.6385Z" fill="#393939"/>
</svg>
