<?xml version="1.0" encoding="UTF-8"?>
<!--Generator: Apple Native CoreSVG 175.5-->
<!DOCTYPE svg
PUBLIC "-//W3C//DTD SVG 1.1//EN"
       "http://www.w3.org/Graphics/SVG/1.1/DTD/svg11.dtd">
<svg version="1.1" xmlns="http://www.w3.org/2000/svg" xmlns:xlink="http://www.w3.org/1999/xlink" width="3300" height="2200">
 <!--glyph: "uni100947.medium", point size: 100.0, font version: "18.0d12e2", template writer version: "101"-->
 <g id="Notes">
  <rect height="2200" id="artboard" style="fill:white;opacity:1" width="3300" x="0" y="0"/>
  <line style="fill:none;stroke:black;opacity:1;stroke-width:0.5;" x1="263" x2="3036" y1="292" y2="292"/>
  <text style="stroke:none;fill:black;font-family:sans-serif;font-size:13;font-weight:bold;" transform="matrix(1 0 0 1 263 322)">Weight/Scale Variations</text>
  <text style="stroke:none;fill:black;font-family:sans-serif;font-size:13;text-anchor:middle;" transform="matrix(1 0 0 1 559.711 322)">Ultralight</text>
  <text style="stroke:none;fill:black;font-family:sans-serif;font-size:13;text-anchor:middle;" transform="matrix(1 0 0 1 856.422 322)">Thin</text>
  <text style="stroke:none;fill:black;font-family:sans-serif;font-size:13;text-anchor:middle;" transform="matrix(1 0 0 1 1153.13 322)">Light</text>
  <text style="stroke:none;fill:black;font-family:sans-serif;font-size:13;text-anchor:middle;" transform="matrix(1 0 0 1 1449.84 322)">Regular</text>
  <text style="stroke:none;fill:black;font-family:sans-serif;font-size:13;text-anchor:middle;" transform="matrix(1 0 0 1 1746.56 322)">Medium</text>
  <text style="stroke:none;fill:black;font-family:sans-serif;font-size:13;text-anchor:middle;" transform="matrix(1 0 0 1 2043.27 322)">Semibold</text>
  <text style="stroke:none;fill:black;font-family:sans-serif;font-size:13;text-anchor:middle;" transform="matrix(1 0 0 1 2339.98 322)">Bold</text>
  <text style="stroke:none;fill:black;font-family:sans-serif;font-size:13;text-anchor:middle;" transform="matrix(1 0 0 1 2636.69 322)">Heavy</text>
  <text style="stroke:none;fill:black;font-family:sans-serif;font-size:13;text-anchor:middle;" transform="matrix(1 0 0 1 2933.4 322)">Black</text>
  <line style="fill:none;stroke:black;opacity:1;stroke-width:0.5;" x1="263" x2="3036" y1="1903" y2="1903"/>
  <g transform="matrix(1 0 0 1 263 1933)">
   <path d="M9.24805 0.830078C13.5547 0.830078 17.1387-2.74414 17.1387-7.05078C17.1387-11.3574 13.5449-14.9316 9.23828-14.9316C4.94141-14.9316 1.36719-11.3574 1.36719-7.05078C1.36719-2.74414 4.95117 0.830078 9.24805 0.830078ZM9.24805-0.654297C5.70312-0.654297 2.87109-3.49609 2.87109-7.05078C2.87109-10.6055 5.69336-13.4473 9.23828-13.4473C12.793-13.4473 15.6445-10.6055 15.6445-7.05078C15.6445-3.49609 12.8027-0.654297 9.24805-0.654297ZM5.6543-7.05078C5.6543-6.62109 5.95703-6.32812 6.40625-6.32812L8.50586-6.32812L8.50586-4.20898C8.50586-3.76953 8.79883-3.4668 9.22852-3.4668C9.67773-3.4668 9.9707-3.76953 9.9707-4.20898L9.9707-6.32812L12.0898-6.32812C12.5293-6.32812 12.832-6.62109 12.832-7.05078C12.832-7.49023 12.5293-7.79297 12.0898-7.79297L9.9707-7.79297L9.9707-9.90234C9.9707-10.3516 9.67773-10.6543 9.22852-10.6543C8.79883-10.6543 8.50586-10.3516 8.50586-9.90234L8.50586-7.79297L6.40625-7.79297C5.95703-7.79297 5.6543-7.49023 5.6543-7.05078Z"/>
  </g>
  <g transform="matrix(1 0 0 1 281.867 1933)">
   <path d="M11.709 2.91016C17.1582 2.91016 21.6699-1.61133 21.6699-7.05078C21.6699-12.5 17.1484-17.0117 11.6992-17.0117C6.25977-17.0117 1.74805-12.5 1.74805-7.05078C1.74805-1.61133 6.26953 2.91016 11.709 2.91016ZM11.709 1.25C7.09961 1.25 3.41797-2.44141 3.41797-7.05078C3.41797-11.6602 7.08984-15.3516 11.6992-15.3516C16.3086-15.3516 20.0098-11.6602 20.0098-7.05078C20.0098-2.44141 16.3184 1.25 11.709 1.25ZM7.17773-7.05078C7.17773-6.57227 7.50977-6.25 8.00781-6.25L10.8789-6.25L10.8789-3.36914C10.8789-2.88086 11.2109-2.53906 11.6895-2.53906C12.1777-2.53906 12.5195-2.87109 12.5195-3.36914L12.5195-6.25L15.4004-6.25C15.8887-6.25 16.2305-6.57227 16.2305-7.05078C16.2305-7.53906 15.8887-7.88086 15.4004-7.88086L12.5195-7.88086L12.5195-10.752C12.5195-11.25 12.1777-11.5918 11.6895-11.5918C11.2109-11.5918 10.8789-11.25 10.8789-10.752L10.8789-7.88086L8.00781-7.88086C7.50977-7.88086 7.17773-7.53906 7.17773-7.05078Z"/>
  </g>
  <g transform="matrix(1 0 0 1 305.646 1933)">
   <path d="M14.9707 5.66406C21.9336 5.66406 27.6953-0.0976562 27.6953-7.05078C27.6953-14.0137 21.9238-19.7754 14.9609-19.7754C8.00781-19.7754 2.25586-14.0137 2.25586-7.05078C2.25586-0.0976562 8.01758 5.66406 14.9707 5.66406ZM14.9707 3.84766C8.93555 3.84766 4.08203-1.01562 4.08203-7.05078C4.08203-13.0957 8.92578-17.9492 14.9609-17.9492C21.0059-17.9492 25.8691-13.0957 25.8691-7.05078C25.8691-1.01562 21.0156 3.84766 14.9707 3.84766ZM9.19922-7.05078C9.19922-6.5332 9.57031-6.17188 10.1172-6.17188L14.0625-6.17188L14.0625-2.2168C14.0625-1.67969 14.4336-1.29883 14.9512-1.29883C15.4883-1.29883 15.8594-1.66992 15.8594-2.2168L15.8594-6.17188L19.8145-6.17188C20.3516-6.17188 20.7324-6.5332 20.7324-7.05078C20.7324-7.59766 20.3613-7.96875 19.8145-7.96875L15.8594-7.96875L15.8594-11.9141C15.8594-12.4609 15.4883-12.8418 14.9512-12.8418C14.4336-12.8418 14.0625-12.4609 14.0625-11.9141L14.0625-7.96875L10.1172-7.96875C9.57031-7.96875 9.19922-7.59766 9.19922-7.05078Z"/>
  </g>
  <text style="stroke:none;fill:black;font-family:sans-serif;font-size:13;font-weight:bold;" transform="matrix(1 0 0 1 263 1953)">Design Variations</text>
  <text style="stroke:none;fill:black;font-family:sans-serif;font-size:13;" transform="matrix(1 0 0 1 263 1971)">Symbols are supported in up to nine weights and three scales.</text>
  <text style="stroke:none;fill:black;font-family:sans-serif;font-size:13;" transform="matrix(1 0 0 1 263 1989)">For optimal layout with text and other symbols, vertically align</text>
  <text style="stroke:none;fill:black;font-family:sans-serif;font-size:13;" transform="matrix(1 0 0 1 263 2007)">symbols with the adjacent text.</text>
  <line style="fill:none;stroke:#00AEEF;stroke-width:0.5;opacity:1.0;" x1="776" x2="776" y1="1919" y2="1933"/>
  <g transform="matrix(1 0 0 1 776 1933)">
   <path d="M3.31055 0.15625C3.82812 0.15625 4.08203-0.0390625 4.26758-0.585938L5.52734-4.0332L11.2891-4.0332L12.5488-0.585938C12.7344-0.0390625 12.9883 0.15625 13.4961 0.15625C14.0137 0.15625 14.3457-0.15625 14.3457-0.644531C14.3457-0.810547 14.3164-0.966797 14.2383-1.17188L9.6582-13.3691C9.43359-13.9648 9.0332-14.2676 8.4082-14.2676C7.80273-14.2676 7.39258-13.9746 7.17773-13.3789L2.59766-1.16211C2.51953-0.957031 2.49023-0.800781 2.49023-0.634766C2.49023-0.146484 2.80273 0.15625 3.31055 0.15625ZM6.00586-5.51758L8.37891-12.0898L8.42773-12.0898L10.8008-5.51758Z"/>
  </g>
  <line style="fill:none;stroke:#00AEEF;stroke-width:0.5;opacity:1.0;" x1="793.197" x2="793.197" y1="1919" y2="1933"/>
  <text style="stroke:none;fill:black;font-family:sans-serif;font-size:13;font-weight:bold;" transform="matrix(1 0 0 1 776 1953)">Margins</text>
  <text style="stroke:none;fill:black;font-family:sans-serif;font-size:13;" transform="matrix(1 0 0 1 776 1971)">Leading and trailing margins on the left and right side of each symbol</text>
  <text style="stroke:none;fill:black;font-family:sans-serif;font-size:13;" transform="matrix(1 0 0 1 776 1989)">can be adjusted by modifying the x-location of the margin guidelines.</text>
  <text style="stroke:none;fill:black;font-family:sans-serif;font-size:13;" transform="matrix(1 0 0 1 776 2007)">Modifications are automatically applied proportionally to all</text>
  <text style="stroke:none;fill:black;font-family:sans-serif;font-size:13;" transform="matrix(1 0 0 1 776 2025)">scales and weights.</text>
  <g transform="matrix(1 0 0 1 1289 1933)">
   <path d="M2.8418 1.86523L4.54102 3.57422C5.40039 4.44336 6.38672 4.38477 7.31445 3.35938L18.0078-8.42773L17.041-9.4043L6.42578 2.27539C6.07422 2.67578 5.74219 2.77344 5.27344 2.30469L4.10156 1.14258C3.63281 0.683594 3.74023 0.341797 4.14062-0.0195312L15.6152-10.8203L14.6387-11.7871L3.04688-0.898438C2.06055 0.0195312 1.98242 0.996094 2.8418 1.86523ZM9.25781-16.3281C8.83789-15.918 8.80859-15.3418 9.04297-14.9512C9.27734-14.5898 9.73633-14.3555 10.3809-14.5215C11.8457-14.8633 13.3691-14.9219 14.7949-13.9844L14.209-12.5293C13.8672-11.6992 14.043-11.1133 14.5801-10.5664L16.875-8.25195C17.3633-7.76367 17.7734-7.74414 18.3398-7.8418L19.4043-8.03711L20.0684-7.36328L20.0293-6.80664C19.9902-6.30859 20.1172-5.92773 20.6055-5.44922L21.3672-4.70703C21.8457-4.22852 22.4609-4.19922 22.9297-4.66797L25.8398-7.58789C26.3086-8.05664 26.2891-8.65234 25.8105-9.13086L25.0391-9.89258C24.5605-10.3711 24.1895-10.5273 23.7109-10.4883L23.1348-10.4395L22.4902-11.0742L22.7344-12.1973C22.8613-12.7637 22.7051-13.2031 22.1191-13.7891L19.9219-15.9766C16.582-19.2969 12.1484-19.2188 9.25781-16.3281ZM10.752-15.957C13.1836-17.7344 16.4746-17.4316 18.7012-15.2051L21.1328-12.793C21.3672-12.5586 21.4062-12.373 21.3379-12.0312L21.0156-10.5469L22.5195-9.0625L23.5059-9.12109C23.7598-9.13086 23.8379-9.11133 24.0332-8.91602L24.6094-8.33984L22.168-5.89844L21.5918-6.47461C21.3965-6.66992 21.3672-6.74805 21.377-7.01172L21.4453-7.98828L19.9512-9.47266L18.4277-9.21875C18.1055-9.15039 17.959-9.17969 17.7148-9.41406L15.7129-11.416C15.459-11.6504 15.4297-11.8164 15.5859-12.1875L16.4648-14.2773C14.9023-15.7324 12.8711-16.3574 10.8398-15.7617C10.6836-15.7227 10.625-15.8496 10.752-15.957Z"/>
  </g>
  <text style="stroke:none;fill:black;font-family:sans-serif;font-size:13;font-weight:bold;" transform="matrix(1 0 0 1 1289 1953)">Exporting</text>
  <text style="stroke:none;fill:black;font-family:sans-serif;font-size:13;" transform="matrix(1 0 0 1 1289 1971)">Symbols should be outlined when exporting to ensure the</text>
  <text style="stroke:none;fill:black;font-family:sans-serif;font-size:13;" transform="matrix(1 0 0 1 1289 1989)">design is preserved when submitting to Xcode.</text>
  <text id="template-version" style="stroke:none;fill:black;font-family:sans-serif;font-size:13;text-anchor:end;" transform="matrix(1 0 0 1 3036 1933)">Template v.4.0</text>
  <text style="stroke:none;fill:black;font-family:sans-serif;font-size:13;text-anchor:end;" transform="matrix(1 0 0 1 3036 1951)">Requires Xcode 14 or greater</text>
  <text id="descriptive-name" style="stroke:none;fill:black;font-family:sans-serif;font-size:13;text-anchor:end;" transform="matrix(1 0 0 1 3036 1969)">Generated from house.circle.fill</text>
  <text style="stroke:none;fill:black;font-family:sans-serif;font-size:13;text-anchor:end;" transform="matrix(1 0 0 1 3036 1987)">Typeset at 100 points</text>
  <text style="stroke:none;fill:black;font-family:sans-serif;font-size:13;" transform="matrix(1 0 0 1 263 726)">Small</text>
  <text style="stroke:none;fill:black;font-family:sans-serif;font-size:13;" transform="matrix(1 0 0 1 263 1156)">Medium</text>
  <text style="stroke:none;fill:black;font-family:sans-serif;font-size:13;" transform="matrix(1 0 0 1 263 1586)">Large</text>
 </g>
 <g id="Guides">
  <g id="H-reference" style="fill:#27AAE1;stroke:none;" transform="matrix(1 0 0 1 339 696)">
   <path d="M0.993654 0L3.63775 0L29.3281-67.1323L30.0303-67.1323L30.0303-70.459L28.1226-70.459ZM11.6885-24.4799L46.9815-24.4799L46.2315-26.7285L12.4385-26.7285ZM55.1196 0L57.7637 0L30.6382-70.459L29.4326-70.459L29.4326-67.1323Z"/>
  </g>
  <line id="Baseline-S" style="fill:none;stroke:#27AAE1;opacity:1;stroke-width:0.5;" x1="263" x2="3036" y1="696" y2="696"/>
  <line id="Capline-S" style="fill:none;stroke:#27AAE1;opacity:1;stroke-width:0.5;" x1="263" x2="3036" y1="625.541" y2="625.541"/>
  <g id="H-reference" style="fill:#27AAE1;stroke:none;" transform="matrix(1 0 0 1 339 1126)">
   <path d="M0.993654 0L3.63775 0L29.3281-67.1323L30.0303-67.1323L30.0303-70.459L28.1226-70.459ZM11.6885-24.4799L46.9815-24.4799L46.2315-26.7285L12.4385-26.7285ZM55.1196 0L57.7637 0L30.6382-70.459L29.4326-70.459L29.4326-67.1323Z"/>
  </g>
  <line id="Baseline-M" style="fill:none;stroke:#27AAE1;opacity:1;stroke-width:0.5;" x1="263" x2="3036" y1="1126" y2="1126"/>
  <line id="Capline-M" style="fill:none;stroke:#27AAE1;opacity:1;stroke-width:0.5;" x1="263" x2="3036" y1="1055.54" y2="1055.54"/>
  <g id="H-reference" style="fill:#27AAE1;stroke:none;" transform="matrix(1 0 0 1 339 1556)">
   <path d="M0.993654 0L3.63775 0L29.3281-67.1323L30.0303-67.1323L30.0303-70.459L28.1226-70.459ZM11.6885-24.4799L46.9815-24.4799L46.2315-26.7285L12.4385-26.7285ZM55.1196 0L57.7637 0L30.6382-70.459L29.4326-70.459L29.4326-67.1323Z"/>
  </g>
  <line id="Baseline-L" style="fill:none;stroke:#27AAE1;opacity:1;stroke-width:0.5;" x1="263" x2="3036" y1="1556" y2="1556"/>
  <line id="Capline-L" style="fill:none;stroke:#27AAE1;opacity:1;stroke-width:0.5;" x1="263" x2="3036" y1="1485.54" y2="1485.54"/>
  <line id="left-margin-Regular-M" style="fill:none;stroke:#00AEEF;stroke-width:0.5;opacity:1.0;" x1="1391.32" x2="1391.32" y1="1030.79" y2="1150.12"/>
  <line id="right-margin-Regular-M" style="fill:none;stroke:#00AEEF;stroke-width:0.5;opacity:1.0;" x1="1508.37" x2="1508.37" y1="1030.79" y2="1150.12"/>
 </g>
 <g id="Symbols">
  <g id="Black-L" transform="matrix(1 0 0 1 2854.19 1556)">
   <path d="M79.1958 32.7257C116.56 32.7257 147.154 2.15259 147.154-35.2113C147.154-72.5752 116.539-103.148 79.175-103.148C41.8307-103.148 11.2588-72.5752 11.2588-35.2113C11.2588 2.15259 41.8515 32.7257 79.1958 32.7257ZM39.3757-38.7075C39.3757-40.0546 40.0674-41.4993 41.2757-42.4895L73.0693-69.1509C76.7441-72.3044 81.8291-72.3044 85.5027-69.1509L96.6934-59.738L96.6934-63.7215C96.6934-65.2207 97.7137-66.141 99.1909-66.141L106.026-66.141C107.524-66.141 108.465-65.2207 108.465-63.7215L108.465-49.8928L117.236-42.5479C118.444-41.5577 119.115-40.0962 119.115-38.6658C119.115-35.9544 117.19-34.21 114.363-34.21C113.053-34.21 111.79-34.8086 110.657-35.7601L81.2889-60.4681C79.9971-61.5175 78.5177-61.5591 77.2623-60.4681L47.8129-35.7601C46.7238-34.8086 45.4387-34.21 44.1484-34.21C41.2381-34.21 39.3757-36.0585 39.3757-38.7075ZM50.437-10.759L50.437-30.9437L77.1841-53.3488C78.4732-54.4551 79.9976-54.4759 81.2867-53.3488L108.056-30.9425L108.056-10.759C108.056-5.9917 104.665-2.83449 99.4872-2.83449L59.0068-2.83449C53.7694-2.83449 50.437-5.9917 50.437-10.759ZM70.8288-11.1954L87.6252-11.1954L87.6252-28.6624C87.6252-30.226 86.721-31.1695 85.1169-31.1695L73.3747-31.1695C71.8707-31.1695 70.8288-30.226 70.8288-28.6624Z"/>
  </g>
  <g id="Heavy-L" transform="matrix(1 0 0 1 2558.42 1556)">
   <path d="M78.2532 31.7694C115.056 31.7694 145.278 1.57794 145.278-35.2251C145.278-72.0281 115.026-102.22 78.2231-102.22C41.4446-102.22 11.2588-72.0281 11.2588-35.2251C11.2588 1.57794 41.4748 31.7694 78.2532 31.7694ZM38.2804-39.1856C38.2804-40.4048 38.8943-41.7177 39.9884-42.612L72.4912-69.8883C75.9675-72.862 80.73-72.862 84.2007-69.8883L96.745-59.3285L96.745-63.8883C96.745-65.3759 97.7669-66.2929 99.2187-66.2929L105.267-66.2929C106.749-66.2929 107.696-65.3759 107.696-63.8883L107.696-50.1673L116.648-42.6566C117.742-41.7623 118.326-40.4652 118.326-39.1253C118.326-36.6736 116.541-35.0748 114.006-35.0748C112.772-35.0748 111.65-35.6701 110.585-36.5443L80.2737-62.0378C79.0171-63.0475 77.6358-63.1079 76.388-62.0378L45.9906-36.5443C44.9969-35.6701 43.8392-35.0748 42.63-35.0748C39.974-35.0748 38.2804-36.8245 38.2804-39.1856ZM49.2334-10.6207L49.2334-32.5294L76.2371-55.167C77.5351-56.2683 79.0462-56.2985 80.3442-55.167L107.384-32.5238L107.384-10.6207C107.384-5.9054 104.133-2.83317 99.0706-2.83317L57.5521-2.83317C52.4395-2.83317 49.2334-5.9054 49.2334-10.6207ZM69.8202-10.6849L86.7769-10.6849L86.7769-29.1542C86.7769-30.7144 85.8677-31.6728 84.2526-31.6728L72.3588-31.6728C70.8488-31.6728 69.8202-30.7144 69.8202-29.1542Z"/>
  </g>
  <g id="Bold-L" transform="matrix(1 0 0 1 2262.89 1556)">
   <path d="M77.0704 30.5711C113.182 30.5711 142.92 0.870872 142.92-35.2405C142.92-71.3519 113.144-101.052 77.0324-101.052C40.9458-101.052 11.2588-71.3519 11.2588-35.2405C11.2588 0.870872 40.9838 30.5711 77.0704 30.5711ZM37.1514-39.7848C37.1514-40.8501 37.6731-41.9941 38.6288-42.773L71.6946-70.5418C74.9622-73.3225 79.3774-73.3225 82.6318-70.5418L96.7172-58.6723L96.7172-63.984C96.7172-65.4264 97.7168-66.3209 99.108-66.3209L104.218-66.3209C105.647-66.3209 106.579-65.4264 106.579-63.984L106.579-50.4234L115.642-42.8022C116.598-42.0233 117.081-40.9261 117.081-39.7088C117.081-37.5799 115.481-36.1653 113.307-36.1653C112.188-36.1653 111.243-36.7381 110.269-37.5126L79.0658-63.7508C77.8031-64.759 76.5073-64.835 75.2226-63.7508L43.9253-37.5126C43.0545-36.7381 42.058-36.1653 40.9636-36.1653C38.6376-36.1653 37.1514-37.7698 37.1514-39.7848ZM47.8843-10.5411L47.8843-34.5709L75.0467-57.3588C76.3598-58.4599 77.8481-58.4979 79.1613-57.3588L106.375-34.5577L106.375-10.5411C106.375-5.93199 103.316-2.98962 98.4439-2.98962L55.8285-2.98962C50.9143-2.98962 47.8843-5.93199 47.8843-10.5411ZM68.5901-10.1218L85.6646-10.1218L85.6646-29.7016C85.6646-31.2394 84.7552-32.1983 83.1547-32.1983L71.0913-32.1983C69.5959-32.1983 68.5901-31.2394 68.5901-29.7016Z"/>
  </g>
  <g id="Semibold-L" transform="matrix(1 0 0 1 1966.99 1556)">
   <path d="M76.2549 29.745C111.889 29.745 141.294 0.383422 141.294-35.2511C141.294-70.8857 111.846-100.247 76.2116-100.247C40.6019-100.247 11.2588-70.8857 11.2588-35.2511C11.2588 0.383422 40.6453 29.745 76.2549 29.745ZM36.3731-40.1978C36.3731-41.1571 36.8311-42.1847 37.6914-42.8841L71.1454-70.9924C74.2692-73.64 78.4449-73.64 81.5502-70.9924L96.6979-58.2199L96.6979-64.0499C96.6979-65.4613 97.6822-66.3402 99.0317-66.3402L103.494-66.3402C104.887-66.3402 105.809-65.4613 105.809-64.0499L105.809-50.6001L114.949-42.9026C115.809-42.2033 116.224-41.2438 116.224-40.1111C116.224-38.2046 114.75-36.9171 112.825-36.9171C111.785-36.9171 110.962-37.4744 110.052-38.1801L78.2331-64.9317C76.9661-65.939 75.7294-66.0257 74.4192-64.9317L42.5015-38.1801C41.7153-37.4744 40.8301-36.9171 39.8148-36.9171C37.7162-36.9171 36.3731-38.4214 36.3731-40.1978ZM46.9542-10.4861L46.9542-35.9784L74.226-58.8698C75.5496-59.9708 77.0222-60.0142 78.3459-58.8698L105.679-35.9599L105.679-10.4861C105.679-5.95032 102.752-3.09747 98.0119-3.09747L54.6402-3.09747C49.8628-3.09747 46.9542-5.95032 46.9542-10.4861ZM67.7422-9.73362L84.8978-9.73362L84.8978-30.0791C84.8978-31.6014 83.9883-32.5606 82.3978-32.5606L70.2174-32.5606C68.7322-32.5606 67.7422-31.6014 67.7422-30.0791Z"/>
  </g>
  <g id="Medium-L" transform="matrix(1 0 0 1 1670.9 1556)">
   <path d="M75.6366 29.1187C110.91 29.1187 140.062 0.0138167 140.062-35.2592C140.062-70.5322 110.862-99.637 75.5892-99.637C40.3412-99.637 11.2588-70.5322 11.2588-35.2592C11.2588 0.0138167 40.3886 29.1187 75.6366 29.1187ZM35.783-40.511C35.783-41.3899 36.1927-42.3292 36.9807-42.9683L70.729-71.334C73.7438-73.8807 77.7378-73.8807 80.7301-71.334L96.6834-57.8769L96.6834-64.0999C96.6834-65.4877 97.656-66.3549 98.9738-66.3549L102.946-66.3549C104.311-66.3549 105.226-65.4877 105.226-64.0999L105.226-50.734L114.423-42.9788C115.211-42.3397 115.573-41.4848 115.573-40.4161C115.573-38.6783 114.196-37.4872 112.46-37.4872C111.48-37.4872 110.749-38.0327 109.887-38.6862L77.6017-65.8272C76.3315-66.8336 75.1396-66.9285 73.81-65.8272L41.422-38.6862C40.7-38.0327 39.899-37.4872 38.9437-37.4872C37.0176-37.4872 35.783-38.9155 35.783-40.511ZM46.249-10.4445L46.249-37.0455L73.6037-60.0155C74.9353-61.1164 76.3959-61.1639 77.7276-60.0155L105.152-37.0231L105.152-10.4445C105.152-5.96421 102.325-3.17925 97.6844-3.17925L53.7392-3.17925C49.0655-3.17925 46.249-5.96421 46.249-10.4445ZM67.0992-9.43928L84.3164-9.43928L84.3164-30.3652C84.3164-31.8758 83.4068-32.8354 81.8238-32.8354L69.5548-32.8354C68.0772-32.8354 67.0992-31.8758 67.0992-30.3652Z"/>
  </g>
  <g id="Regular-L" transform="matrix(1 0 0 1 1374.99 1556)">
   <path d="M74.8301 28.3017C109.632 28.3017 138.454-0.468277 138.454-35.2697C138.454-70.0711 109.579-98.8411 74.7774-98.8411C40.0011-98.8411 11.2588-70.0711 11.2588-35.2697C11.2588-0.468277 40.0538 28.3017 74.8301 28.3017ZM35.0133-40.9195C35.0133-41.6935 35.3601-42.5177 36.0536-43.0781L70.1858-71.7796C73.0584-74.1947 76.8155-74.1947 79.6604-71.7796L96.6644-57.4295L96.6644-64.1652C96.6644-65.5221 97.6217-66.374 98.8983-66.374L102.23-66.374C103.56-66.374 104.464-65.5221 104.464-64.1652L104.464-50.9086L113.737-43.0781C114.431-42.5177 114.725-41.799 114.725-40.814C114.725-39.2962 113.473-38.2307 111.983-38.2307C111.081-38.2307 110.471-38.7609 109.672-39.3464L76.7781-66.9952C75.5037-68.0006 74.3702-68.1061 73.0154-66.9952L40.0138-39.3464C39.3756-38.7609 38.6845-38.2307 37.8076-38.2307C36.1064-38.2307 35.0133-39.56 35.0133-40.9195ZM45.3292-10.3901L45.3292-38.4375L72.792-61.5099C74.134-62.6107 75.579-62.6635 76.9211-61.5099L104.464-38.4098L104.464-10.3901C104.464-5.98234 101.768-3.28592 97.2571-3.28592L52.564-3.28592C48.0256-3.28592 45.3292-5.98234 45.3292-10.3901ZM66.2605-9.05536L83.5581-9.05536L83.5581-30.7385C83.5581-32.2338 82.6483-33.1937 81.0752-33.1937L68.6906-33.1937C67.223-33.1937 66.2605-32.2338 66.2605-30.7385Z"/>
  </g>
  <g id="Light-L" transform="matrix(1 0 0 1 1079.2 1556)">
   <path d="M73.9141 27.3856C108.257 27.3856 136.603-0.926323 136.603-35.2697C136.603-69.6131 108.224-97.925 73.8804-97.925C39.5239-97.925 11.2588-69.6131 11.2588-35.2697C11.2588-0.926323 39.5576 27.3856 73.9141 27.3856ZM35.7003-41.3775C35.7003-42.0752 36.009-42.7467 36.6262-43.2499L69.117-70.5581C72.085-73.0305 75.9376-73.0305 78.8589-70.5581L96.0536-56.0172L96.0536-63.5163C96.0536-64.6442 96.8392-65.3624 97.8867-65.3624L100.799-65.3624C101.88-65.3624 102.632-64.6442 102.632-63.5163L102.632-50.546L111.256-43.2499C111.873-42.7467 112.148-42.1426 112.148-41.3102C112.148-40.0214 111.088-39.1087 109.846-39.1087C109.154-39.1087 108.677-39.5052 107.992-39.9953L76.2628-66.6898C74.664-68.0006 73.3587-68.068 71.6794-66.6898L39.823-39.9953C39.2992-39.5052 38.7418-39.1087 38.0366-39.1087C36.6599-39.1087 35.7003-40.1898 35.7003-41.3775ZM45.3101-10.9245L45.3101-40.346L71.8568-62.636C73.237-63.7749 74.6248-63.8086 76.005-62.636L102.632-40.2993L102.632-10.9245C102.632-6.86026 100.184-4.41195 96.112-4.41195L51.877-4.41195C47.7584-4.41195 45.3101-6.86026 45.3101-10.9245ZM65.5353-9.11261L82.3939-9.11261L82.3939-30.7194C82.3939-32.0811 81.5223-32.9265 80.1401-32.9265L67.7554-32.9265C66.4405-32.9265 65.5353-32.0811 65.5353-30.7194Z"/>
  </g>
  <g id="Thin-L" transform="matrix(1 0 0 1 783.716 1556)">
   <path d="M72.7024 26.174C106.44 26.174 134.155-1.53213 134.155-35.2697C134.155-69.0073 106.432-96.7134 72.694-96.7134C38.8929-96.7134 11.2588-69.0073 11.2588-35.2697C11.2588-1.53213 38.9013 26.174 72.7024 26.174ZM36.609-41.9833C36.609-42.58 36.8672-43.0496 37.3834-43.477L67.7035-68.9426C70.7977-71.4908 74.7765-71.4908 77.7987-68.9426L95.2459-54.1493L95.2459-62.658C95.2459-63.4831 95.8043-64.0246 96.5489-64.0246L98.9059-64.0246C99.6589-64.0246 100.209-63.4831 100.209-62.658L100.209-50.0664L107.975-43.477C108.491-43.0496 108.741-42.5969 108.741-41.9665C108.741-40.9806 107.933-40.2698 107.019-40.2698C106.604-40.2698 106.304-40.4897 105.771-40.8535L75.5812-66.2859C73.5533-68.0006 72.0208-68.0175 69.9125-66.2859L39.5705-40.8535C39.1982-40.4897 38.8175-40.2698 38.3395-40.2698C37.3919-40.2698 36.609-41.0228 36.609-41.9833ZM45.2849-11.6313L45.2849-42.8702L70.62-64.1252C72.0506-65.3147 73.3627-65.3231 74.7934-64.1252L100.209-42.7982L100.209-11.6313C100.209-8.02139 98.0887-5.90122 94.5975-5.90122L50.9683-5.90122C47.405-5.90122 45.2849-8.02139 45.2849-11.6313ZM64.5761-9.18834L80.8541-9.18834L80.8541-30.6942C80.8541-31.8791 80.033-32.5731 78.9032-32.5731L66.5185-32.5731C65.4056-32.5731 64.5761-31.8791 64.5761-30.6942Z"/>
  </g>
  <g id="Ultralight-L" transform="matrix(1 0 0 1 487.631 1556)">
   <path d="M72.0819 25.5534C105.509 25.5534 132.9-1.84242 132.9-35.2697C132.9-68.697 105.514-96.0928 72.0864-96.0928C38.5697-96.0928 11.2588-68.697 11.2588-35.2697C11.2588-1.84242 38.5652 25.5534 72.0819 25.5534ZM37.0745-42.2936C37.0745-42.8386 37.3068-43.2048 37.7713-43.5934L66.9795-68.1152C70.1383-70.7021 74.1818-70.7021 77.2557-68.1152L94.8322-53.1926L94.8322-62.2185C94.8322-62.8883 95.2743-63.3394 95.8637-63.3394L97.9362-63.3394C98.5212-63.3394 98.9677-62.8883 98.9677-62.2185L98.9677-49.8208L106.294-43.5934C106.759-43.2048 106.995-42.8296 106.995-42.3026C106.995-41.4719 106.317-40.8645 105.571-40.8645C105.298-40.8645 105.089-40.9939 104.633-41.2931L75.2322-66.0791C72.9845-68.0006 71.3356-67.9916 69.0075-66.0791L39.4413-41.2931C39.1465-40.9939 38.8563-40.8645 38.4946-40.8645C37.7668-40.8645 37.0745-41.4495 37.0745-42.2936ZM45.2719-11.9933L45.2719-44.1631L69.9865-64.888C71.443-66.1033 72.7162-66.0988 74.1728-64.888L98.9677-44.0781L98.9677-11.9933C98.9677-8.61611 97.0156-6.66401 93.8218-6.66401L50.5028-6.66401C47.224-6.66401 45.2719-8.61611 45.2719-11.9933ZM64.0848-9.22713L80.0655-9.22713L80.0655-30.6813C80.0655-31.7757 79.2702-32.3921 78.2697-32.3921L65.885-32.3921C64.8755-32.3921 64.0848-31.7757 64.0848-30.6813Z"/>
  </g>
  <g id="Black-M" transform="matrix(1 0 0 1 2871.36 1126)">
   <path d="M62.0422 18.116C91.4096 18.116 115.367-5.83621 115.367-35.2035C115.367-64.5709 91.4041-88.5231 62.0367-88.5231C32.6752-88.5231 8.72266-64.5709 8.72266-35.2035C8.72266-5.83621 32.6807 18.116 62.0422 18.116ZM31.5405-37.5751C31.5405-38.7184 32.138-39.9303 33.1619-40.7722L56.9619-60.7107C59.9924-63.316 64.2221-63.316 67.2529-60.7107L74.7853-54.3779L74.7853-57.0721C74.7853-58.2126 75.5511-58.9103 76.6864-58.9103L82.6004-58.9103C83.7412-58.9103 84.4444-58.2126 84.4444-57.0721L84.4444-46.3048L90.9964-40.8293C92.0203-39.9874 92.6124-38.7294 92.6124-37.5642C92.6124-35.2713 91.0261-33.8154 88.6187-33.8154C87.5669-33.8154 86.4851-34.2639 85.5644-35.0545L63.7806-53.3926C62.7056-54.281 61.4519-54.2919 60.4287-53.3926L38.5829-35.0545C37.6727-34.2639 36.5857-33.8154 35.5396-33.8154C33.1103-33.8154 31.5405-35.2988 31.5405-37.5751ZM40.1075-16.4624L40.1075-30.8049L60.4849-47.8573C61.4812-48.7238 62.6658-48.7293 63.6622-47.8573L84.0448-30.8051L84.0448-16.4624C84.0448-12.7709 81.3309-10.2854 77.2798-10.2854L46.8722-10.2854C42.7642-10.2854 40.1075-12.7709 40.1075-16.4624ZM55.6427-17.0558L68.4583-17.0558L68.4583-29.7164C68.4583-30.9126 67.7672-31.6153 66.5597-31.6153L57.5928-31.6153C56.4535-31.6153 55.6427-30.9126 55.6427-29.7164Z"/>
  </g>
  <g id="Heavy-M" transform="matrix(1 0 0 1 2575.48 1126)">
   <path d="M61.2053 17.2657C90.0667 17.2657 113.704-6.35571 113.704-35.217C113.704-64.0783 90.0502-87.6997 61.1889-87.6997C32.3418-87.6997 8.72266-64.0783 8.72266-35.217C8.72266-6.35571 32.3582 17.2657 61.2053 17.2657ZM30.4063-38.0003C30.4063-39.0256 30.9314-40.1227 31.8507-40.876L56.4954-61.5442C59.323-63.9685 63.2287-63.9685 66.0541-61.5442L74.8921-54.1078L74.8921-57.2951C74.8921-58.4453 75.6754-59.1521 76.8069-59.1521L81.9909-59.1521C83.1389-59.1521 83.8621-58.4453 83.8621-57.2951L83.8621-46.6065L90.6506-40.9196C91.5699-40.1663 92.0785-39.0584 92.0785-37.9675C92.0785-35.9075 90.6121-34.5798 88.4671-34.5798C87.4703-34.5798 86.5142-35.0374 85.6493-35.7612L62.8357-54.9552C61.8251-55.7767 60.683-55.8095 59.6973-54.9552L36.8191-35.7612C35.9916-35.0374 35.0168-34.5798 34.0341-34.5798C31.8235-34.5798 30.4063-35.9895 30.4063-38.0003ZM38.9327-16.2779L38.9327-32.179L59.6455-49.5308C60.6469-50.3889 61.8238-50.4053 62.8253-49.5308L83.5567-32.1767L83.5567-16.2779C83.5567-12.6055 80.957-10.1802 76.9782-10.1802L45.5135-10.1802C41.4888-10.1802 38.9327-12.6055 38.9327-16.2779ZM54.7235-16.5515L67.7364-16.5515L67.7364-30.1989C67.7364-31.4042 67.0369-32.1319 65.8011-32.1319L56.686-32.1319C55.5267-32.1319 54.7235-31.4042 54.7235-30.1989Z"/>
  </g>
  <g id="Bold-M" transform="matrix(1 0 0 1 2279.69 1126)">
   <path d="M60.2692 16.3144C88.5644 16.3144 111.844-6.93686 111.844-35.2321C111.844-63.5273 88.5358-86.7786 60.2405-86.7786C31.9688-86.7786 8.72266-63.5273 8.72266-35.2321C8.72266-6.93686 31.9974 16.3144 60.2692 16.3144ZM29.1376-38.476C29.1376-39.3692 29.5816-40.3379 30.3839-40.9922L55.9734-62.4765C58.5742-64.6984 62.1173-64.6984 64.713-62.4765L75.0116-53.8057L75.0116-57.5445C75.0116-58.7057 75.8143-59.4226 76.9417-59.4226L81.3091-59.4226C82.4651-59.4226 83.2107-58.7057 83.2107-57.5445L83.2107-46.9441L90.2637-41.0208C91.066-40.3664 91.4814-39.4264 91.4814-38.4187C91.4814-36.6191 90.1491-35.4349 88.2975-35.4349C87.3623-35.4349 86.5468-35.9026 85.7443-36.5519L61.7787-56.7031C60.84-57.4498 59.823-57.507 58.8791-56.7031L34.846-36.5519C34.111-35.9026 33.2618-35.4349 32.3501-35.4349C30.384-35.4349 29.1376-36.7622 29.1376-38.476ZM37.6184-16.0716L37.6184-33.7161L58.7064-51.4028C59.7136-52.2516 60.8819-52.2802 61.8891-51.4028L83.0108-33.7109L83.0108-16.0716C83.0108-12.4205 80.5387-10.0626 76.6408-10.0626L43.9936-10.0626C40.062-10.0626 37.6184-12.4205 37.6184-16.0716ZM53.6954-15.9872L66.9288-15.9872L66.9288-30.7387C66.9288-31.9541 66.22-32.7099 64.9525-32.7099L55.6716-32.7099C54.4899-32.7099 53.6954-31.9541 53.6954-30.7387Z"/>
  </g>
  <g id="Semibold-M" transform="matrix(1 0 0 1 1983.62 1126)">
   <path d="M59.6238 15.6586C87.5288 15.6586 110.562-7.33749 110.562-35.2425C110.562-63.1475 87.4917-86.1436 59.5867-86.1436C31.7117-86.1436 8.72266-63.1475 8.72266-35.2425C8.72266-7.33749 31.7487 15.6586 59.6238 15.6586ZM28.2629-38.8038C28.2629-39.606 28.651-40.4862 29.3728-41.0723L55.6136-63.1193C58.058-65.2017 61.3512-65.2017 63.7885-63.1193L75.094-53.5975L75.094-57.7165C75.094-58.8851 75.9102-59.609 77.0347-59.609L80.8391-59.609C82.0007-59.609 82.7616-58.8851 82.7616-57.7165L82.7616-47.1768L89.9969-41.0905C90.7187-40.5044 91.0697-39.6801 91.0697-38.7298C91.0697-37.1097 89.8299-36.0244 88.1806-36.0244C87.2879-36.0244 86.5693-36.4991 85.8098-37.0969L61.05-57.9082C60.1609-58.6033 59.2301-58.6773 58.315-57.9082L33.4858-37.0969C32.8146-36.4991 32.0519-36.0244 31.1891-36.0244C29.3916-36.0244 28.2629-37.2949 28.2629-38.8038ZM36.7124-15.9294L36.7124-34.7757L58.059-52.6934C59.0701-53.5357 60.2326-53.5728 61.2437-52.6934L82.6345-34.7686L82.6345-15.9294C82.6345-12.293 80.2504-9.9815 76.4081-9.9815L42.9458-9.9815C39.0784-9.9815 36.7124-12.293 36.7124-15.9294ZM52.9866-15.5983L66.3721-15.5983L66.3721-31.1108C66.3721-32.3332 65.6568-33.1083 64.3675-33.1083L54.9723-33.1083C53.7752-33.1083 52.9866-32.3332 52.9866-31.1108Z"/>
  </g>
  <g id="Medium-M" transform="matrix(1 0 0 1 1687.4 1126)">
   <path d="M59.1344 15.1614C86.7435 15.1614 109.59-7.64127 109.59-35.2504C109.59-62.8595 86.7001-85.6621 59.091-85.6621C31.5167-85.6621 8.72266-62.8595 8.72266-35.2504C8.72266-7.64127 31.5601 15.1614 59.1344 15.1614ZM27.5998-39.0525C27.5998-39.7856 27.9455-40.5987 28.606-41.133L55.3408-63.6067C57.6666-65.5832 60.7702-65.5832 63.0874-63.6067L75.1565-53.4396L75.1565-57.8469C75.1565-59.0212 75.9828-59.7504 77.1051-59.7504L80.4827-59.7504C81.6485-59.7504 82.4211-59.0212 82.4211-57.8469L82.4211-47.3533L89.7947-41.1433C90.4553-40.609 90.7576-39.8725 90.7576-38.9656C90.7576-37.4817 89.5878-36.4714 88.0919-36.4714C87.2314-36.4714 86.5864-36.9514 85.8595-37.5102L60.4975-58.8219C59.646-59.4779 58.7805-59.5647 57.8873-58.8219L32.4544-37.5102C31.8316-36.9514 31.1345-36.4714 30.3088-36.4714C28.6392-36.4714 27.5998-37.6988 27.5998-39.0525ZM36.0254-15.8215L36.0254-35.5792L57.5682-53.672C58.5823-54.5094 59.7402-54.5529 60.7543-53.672L82.3491-35.5706L82.3491-15.8215C82.3491-12.1963 80.0317-9.92001 76.2318-9.92001L42.1514-9.92001C38.3325-9.92001 36.0254-12.1963 36.0254-15.8215ZM52.4491-15.3034L65.95-15.3034L65.95-31.393C65.95-32.6206 65.2298-33.4105 63.9239-33.4105L54.442-33.4105C53.2333-33.4105 52.4491-32.6206 52.4491-31.393Z"/>
  </g>
  <g id="Regular-M" transform="matrix(1 0 0 1 1391.32 1126)">
   <path d="M58.4961 14.5128C85.7192 14.5128 108.321-8.0375 108.321-35.2606C108.321-62.4838 85.6675-85.0341 58.4443-85.0341C31.2624-85.0341 8.72266-62.4838 8.72266-35.2606C8.72266-8.0375 31.3141 14.5128 58.4961 14.5128ZM26.7347-39.3768C26.7347-40.0199 27.0251-40.7455 27.606-41.2122L54.9849-64.2424C57.156-66.0809 60.0125-66.0809 62.1731-64.2424L75.238-53.2336L75.238-58.0169C75.238-59.1987 76.0776-59.9348 77.197-59.9348L80.0179-59.9348C81.1891-59.9348 81.9769-59.1987 81.9769-58.0169L81.9769-47.5834L89.5309-41.2122C90.1117-40.7455 90.3504-40.1234 90.3504-39.2733C90.3504-37.9669 89.2721-37.0544 87.9763-37.0544C87.1578-37.0544 86.6086-37.5413 85.9242-38.0493L59.7768-60.0137C58.9744-60.6187 58.1941-60.7222 57.3294-60.0137L31.1091-38.0493C30.5494-37.5413 29.9379-37.0544 29.1606-37.0544C27.6577-37.0544 26.7347-38.2256 26.7347-39.3768ZM35.1293-15.6809L35.1293-36.6273L56.9279-54.9484C57.9459-55.7795 59.098-55.8312 60.116-54.9484L81.9769-36.6167L81.9769-15.6809C81.9769-12.0702 79.7465-9.8398 76.0017-9.8398L41.1151-9.8398C37.3597-9.8398 35.1293-12.0702 35.1293-15.6809ZM51.7481-14.9187L65.3994-14.9187L65.3994-31.761C65.3994-32.9956 64.6728-33.8045 63.3453-33.8045L53.7504-33.8045C52.5264-33.8045 51.7481-32.9956 51.7481-31.761Z"/>
  </g>
  <g id="Light-M" transform="matrix(1 0 0 1 1095.44 1126)">
   <path d="M57.6748 13.6915C84.4872 13.6915 106.662-8.44816 106.662-35.2606C106.662-62.0731 84.4526-84.2128 57.6401-84.2128C30.8346-84.2128 8.72266-62.0731 8.72266-35.2606C8.72266-8.44816 30.8693 13.6915 57.6748 13.6915ZM27.3507-39.7874C27.3507-40.3621 27.6069-40.9508 28.1193-41.3662L54.0267-63.1473C56.2834-65.0371 59.2254-65.0371 61.4544-63.1473L74.6904-51.9674L74.6904-57.4352C74.6904-58.4116 75.376-59.028 76.2902-59.028L78.7345-59.028C79.6833-59.028 80.3343-58.4116 80.3343-57.4352L80.3343-47.2583L87.3065-41.3662C87.8189-40.9508 88.0404-40.4314 88.0404-39.7181C88.0404-38.6171 87.1333-37.8415 86.0599-37.8415C85.4296-37.8415 85.0002-38.2086 84.4185-38.631L59.3148-59.7399C58.2215-60.6187 57.2872-60.6879 56.1316-59.7399L30.938-38.631C30.481-38.2086 29.9892-37.8415 29.3659-37.8415C28.154-37.8415 27.3507-38.7903 27.3507-39.7874ZM35.1122-16.16L35.1122-38.3384L56.0895-55.9579C57.1417-56.8232 58.2425-56.8579 59.2947-55.9579L80.3343-38.3107L80.3343-16.16C80.3343-12.8573 78.3263-10.8493 74.975-10.8493L40.4991-10.8493C37.1202-10.8493 35.1122-12.8573 35.1122-16.16ZM51.0979-14.97L64.3556-14.97L64.3556-31.7439C64.3556-32.8587 63.6633-33.565 62.5069-33.565L52.9119-33.565C51.8248-33.565 51.0979-32.8587 51.0979-31.7439Z"/>
  </g>
  <g id="Thin-M" transform="matrix(1 0 0 1 799.828 1126)">
   <path d="M56.5885 12.6052C82.8578 12.6052 104.466-8.9913 104.466-35.2606C104.466-61.53 82.8458-83.1265 56.5765-83.1265C30.2689-83.1265 8.72266-61.53 8.72266-35.2606C8.72266-8.9913 30.2809 12.6052 56.5885 12.6052ZM28.1654-40.3306C28.1654-40.8147 28.3764-41.2224 28.7982-41.5699L52.7594-61.699C55.1292-63.6567 58.1844-63.6567 60.5039-61.699L73.9662-50.2927L73.9662-56.6657C73.9662-57.3706 74.4482-57.8285 75.0907-57.8285L77.0372-57.8285C77.6918-57.8285 78.1618-57.3706 78.1618-56.6657L78.1618-46.8283L84.3645-41.5699C84.7864-41.2224 84.9853-40.8388 84.9853-40.3065C84.9853-39.477 84.3044-38.8825 83.5252-38.8825C83.1439-38.8825 82.8729-39.0912 82.427-39.4005L58.7038-59.3778C57.2258-60.6187 56.0878-60.6427 54.5475-59.3778L30.7117-39.4005C30.3904-39.0912 30.0571-38.8825 29.6375-38.8825C28.8102-38.8825 28.1654-39.5371 28.1654-40.3306ZM35.0896-16.7936L35.0896-40.6014L54.9806-57.2931C56.078-58.2037 57.111-58.2157 58.2084-57.2931L78.1618-40.5511L78.1618-16.7936C78.1618-13.8983 76.448-12.1845 73.6172-12.1845L39.6844-12.1845C36.8033-12.1845 35.0896-13.8983 35.0896-16.7936ZM50.2379-15.0379L62.9751-15.0379L62.9751-31.7213C62.9751-32.6776 62.3281-33.2482 61.398-33.2482L51.803-33.2482C50.897-33.2482 50.2379-32.6776 50.2379-31.7213Z"/>
  </g>
  <g id="Ultralight-M" transform="matrix(1 0 0 1 503.679 1126)">
   <path d="M56.0321 12.0488C82.0233 12.0488 103.342-9.26949 103.342-35.2606C103.342-61.2518 82.0228-82.5701 56.0317-82.5701C29.9791-82.5701 8.72266-61.2518 8.72266-35.2606C8.72266-9.26949 29.9795 12.0488 56.0321 12.0488ZM28.5827-40.6087C28.5827-41.0466 28.7705-41.3615 29.146-41.6742L52.1103-60.9571C54.5381-62.9496 57.6512-62.9496 60.0171-60.9571L73.5953-49.435L73.5953-56.2716C73.5953-56.8374 73.9729-57.2142 74.4764-57.2142L76.1679-57.2142C76.6718-57.2142 77.049-56.8374 77.049-56.2716L77.049-46.6081L82.8576-41.6742C83.2331-41.3615 83.4205-41.0474 83.4205-40.6079C83.4205-39.9175 82.8555-39.4157 82.227-39.4157C81.9732-39.4157 81.7833-39.5433 81.407-39.7946L58.3909-59.1924C56.7158-60.6187 55.4735-60.6195 53.7361-59.1924L30.5958-39.7946C30.3441-39.5433 30.0919-39.4157 29.7766-39.4157C29.1464-39.4157 28.5827-39.9196 28.5827-40.6087ZM35.078-17.1182L35.078-41.7606L54.4126-57.977C55.5333-58.9108 56.5314-58.9112 57.652-57.977L77.049-41.6987L77.049-17.1182C77.049-14.4315 75.4859-12.8684 72.9217-12.8684L39.2671-12.8684C36.641-12.8684 35.078-14.4315 35.078-17.1182ZM49.7974-15.0727L62.2681-15.0727L62.2681-31.7097C62.2681-32.5849 61.6442-33.0859 60.83-33.0859L51.2351-33.0859C50.4217-33.0859 49.7974-32.5849 49.7974-31.7097Z"/>
  </g>
  <g id="Black-S" transform="matrix(1 0 0 1 2884.57 696)">
   <path d="M48.8281 6.78711C71.9727 6.78711 90.8203-12.0605 90.8203-35.2051C90.8203-58.3496 71.9727-77.1973 48.8281-77.1973C25.6836-77.1973 6.83594-58.3496 6.83594-35.2051C6.83594-12.0605 25.6836 6.78711 48.8281 6.78711ZM25.0977-36.9629C25.0977-37.8906 25.5859-38.8672 26.416-39.5508L44.7266-54.8828C47.168-56.9824 50.5859-56.9824 53.0273-54.8828L58.5449-50.2441L58.5449-52.2461C58.5449-53.125 59.1309-53.6621 60.0098-53.6621L64.8438-53.6621C65.7227-53.6621 66.2598-53.125 66.2598-52.2461L66.2598-43.7988L71.2891-39.5996C72.1191-38.916 72.6074-37.8906 72.6074-36.9629C72.6074-35.1074 71.3379-33.9355 69.3848-33.9355C68.5547-33.9355 67.6758-34.2773 66.9434-34.9121L50.2441-48.9746C49.3652-49.707 48.3398-49.707 47.5098-48.9746L30.7617-34.9121C30.0293-34.2773 29.1504-33.9355 28.3203-33.9355C26.3672-33.9355 25.0977-35.1074 25.0977-36.9629ZM31.7871-20.6055L31.7871-31.4453L47.6074-44.6777C48.3887-45.3613 49.3164-45.3613 50.0977-44.6777L65.918-31.4453L65.918-20.6055C65.918-17.7246 63.7695-15.7715 60.5957-15.7715L37.1094-15.7715C33.8867-15.7715 31.7871-17.7246 31.7871-20.6055ZM43.8477-21.1426L53.8086-21.1426L53.8086-30.7617C53.8086-31.6895 53.2715-32.2266 52.3438-32.2266L45.3613-32.2266C44.4824-32.2266 43.8477-31.6895 43.8477-30.7617Z"/>
  </g>
  <g id="Heavy-S" transform="matrix(1 0 0 1 2588.47 696)">
   <path d="M48.2173 6.16479C70.9816 6.16479 89.6102-12.4524 89.6102-35.2166C89.6102-57.9808 70.97-76.598 48.2058-76.598C25.4531-76.598 6.83594-57.9808 6.83594-35.2166C6.83594-12.4524 25.4646 6.16479 48.2173 6.16479ZM24.0489-37.2741C24.0489-38.1096 24.4796-39.0055 25.229-39.6199L44.45-55.7356C46.707-57.6739 49.8368-57.6739 52.0939-55.7356L58.7063-50.175L58.7063-52.5112C58.7063-53.4246 59.3268-53.9848 60.2287-53.9848L64.4865-53.9848C65.4-53.9848 65.9717-53.4246 65.9717-52.5112L65.9717-44.0985L71.2775-39.6572C72.0269-39.0428 72.4461-38.1326 72.4461-37.251C72.4461-35.5684 71.2572-34.4887 69.5-34.4887C68.693-34.4887 67.9063-34.8536 67.2084-35.4422L49.4951-50.346C48.7083-50.9862 47.7982-51.0093 47.0373-50.346L29.2751-35.4422C28.6003-34.8536 27.802-34.4887 27.0065-34.4887C25.2032-34.4887 24.0489-35.626 24.0489-37.2741ZM30.7845-20.3865L30.7845-32.4018L46.9966-45.98C47.7779-46.6521 48.7056-46.6636 49.4869-45.98L65.7105-32.4018L65.7105-20.3865C65.7105-17.4826 63.6312-15.5525 60.4689-15.5525L36.0261-15.5525C32.8265-15.5525 30.7845-17.4826 30.7845-20.3865ZM43.1447-20.7046L53.3246-20.7046L53.3246-31.1766C53.3246-32.1274 52.7759-32.6991 51.8021-32.6991L44.6929-32.6991C43.7794-32.6991 43.1447-32.1274 43.1447-31.1766Z"/>
  </g>
  <g id="Bold-S" transform="matrix(1 0 0 1 2292.43 696)">
   <path d="M47.5342 5.46875C69.873 5.46875 88.2568-12.8906 88.2568-35.2295C88.2568-57.5684 69.8486-75.9277 47.5098-75.9277C25.1953-75.9277 6.83594-57.5684 6.83594-35.2295C6.83594-12.8906 25.2197 5.46875 47.5342 5.46875ZM22.876-37.6221C22.876-38.3545 23.2422-39.1602 23.9014-39.6973L44.1406-56.6895C46.1914-58.4473 48.999-58.4473 51.0498-56.6895L58.8867-50.0977L58.8867-52.8076C58.8867-53.7598 59.5459-54.3457 60.4736-54.3457L64.0869-54.3457C65.0391-54.3457 65.6494-53.7598 65.6494-52.8076L65.6494-44.4336L71.2646-39.7217C71.9238-39.1846 72.2656-38.4033 72.2656-37.5732C72.2656-36.084 71.167-35.1074 69.6289-35.1074C68.8477-35.1074 68.1641-35.498 67.5049-36.0352L48.6572-51.8799C47.9736-52.417 47.1924-52.4658 46.5088-51.8799L27.6123-36.0352C27.002-35.498 26.2939-35.1074 25.5371-35.1074C23.9014-35.1074 22.876-36.2061 22.876-37.6221ZM29.6631-20.1416L29.6631-33.4717L46.3135-47.4365C47.0947-48.0957 48.0225-48.1201 48.8037-47.4365L65.4785-33.4717L65.4785-20.1416C65.4785-17.2119 63.4766-15.3076 60.3271-15.3076L34.8145-15.3076C31.6406-15.3076 29.6631-17.2119 29.6631-20.1416ZM42.3584-20.2148L52.7832-20.2148L52.7832-31.6406C52.7832-32.6172 52.2217-33.2275 51.1963-33.2275L43.9453-33.2275C42.9932-33.2275 42.3584-32.6172 42.3584-31.6406Z"/>
  </g>
  <g id="Semibold-S" transform="matrix(1 0 0 1 1996.19 696)">
   <path d="M47.0632 4.98887C69.1088 4.98887 87.3237-13.1928 87.3237-35.2384C87.3237-57.284 69.0755-75.4656 47.0299-75.4656C25.0176-75.4656 6.83594-57.284 6.83594-35.2384C6.83594-13.1928 25.0509 4.98887 47.0632 4.98887ZM22.0673-37.862C22.0673-38.5233 22.3891-39.2668 22.986-39.7506L43.9273-57.3471C45.8359-58.9805 48.4214-58.9805 50.33-57.3471L59.0111-50.0443L59.0111-53.012C59.0111-53.9908 59.697-54.5945 60.6425-54.5945L63.8114-54.5945C64.7902-54.5945 65.4272-53.9908 65.4272-53.012L65.4272-44.6646L71.2558-39.7661C71.8527-39.2823 72.1412-38.5899 72.1412-37.7954C72.1412-36.4395 71.1048-35.534 69.7178-35.534C68.9543-35.534 68.3418-35.9424 67.7093-36.4439L48.0796-52.9374C47.4671-53.4034 46.7747-53.47 46.1444-52.9374L26.4659-36.4439C25.9-35.9424 25.2542-35.534 24.524-35.534C23.0038-35.534 22.0673-36.606 22.0673-37.862ZM28.8899-19.9728L28.8899-34.2093L45.8425-48.4407C46.6237-49.091 47.5515-49.1243 48.3327-48.4407L65.3186-34.2093L65.3186-19.9728C65.3186-17.0253 63.3699-15.1388 60.2294-15.1388L33.9791-15.1388C30.823-15.1388 28.8899-17.0253 28.8899-19.9728ZM41.8163-19.8771L52.41-19.8771L52.41-31.9605C52.41-32.9549 51.8396-33.5919 50.7786-33.5919L43.4299-33.5919C42.4511-33.5919 41.8163-32.9549 41.8163-31.9605Z"/>
  </g>
  <g id="Medium-S" transform="matrix(1 0 0 1 1699.83 696)">
   <path d="M46.7061 4.625C68.5293 4.625 86.6162-13.4219 86.6162-35.2451C86.6162-57.0684 68.4893-75.1152 46.666-75.1152C24.8828-75.1152 6.83594-57.0684 6.83594-35.2451C6.83594-13.4219 24.9229 4.625 46.7061 4.625ZM21.4541-38.0439C21.4541-38.6514 21.7422-39.3477 22.292-39.791L43.7656-57.8457C45.5664-59.3848 47.9834-59.3848 49.7842-57.8457L59.1055-50.0039L59.1055-53.167C59.1055-54.166 59.8115-54.7832 60.7705-54.7832L63.6025-54.7832C64.6016-54.7832 65.2588-54.166 65.2588-53.167L65.2588-44.8398L71.249-39.7998C71.7988-39.3564 72.0469-38.7314 72.0469-37.9639C72.0469-36.709 71.0576-35.8574 69.7852-35.8574C69.0352-35.8574 68.4766-36.2793 67.8643-36.7539L47.6416-53.7393C47.083-54.1514 46.458-54.2314 45.8682-53.7393L25.5967-36.7539C25.0645-36.2793 24.4658-35.8574 23.7559-35.8574C22.3232-35.8574 21.4541-36.9092 21.4541-38.0439ZM28.3037-19.8447L28.3037-34.7686L45.4854-49.2021C46.2666-49.8457 47.1943-49.8857 47.9756-49.2021L65.1973-34.7686L65.1973-19.8447C65.1973-16.8838 63.2891-15.0107 60.1553-15.0107L33.3457-15.0107C30.2031-15.0107 28.3037-16.8838 28.3037-19.8447ZM41.4053-19.6211L52.127-19.6211L52.127-32.2031C52.127-33.2109 51.5498-33.8682 50.4619-33.8682L43.0391-33.8682C42.04-33.8682 41.4053-33.2109 41.4053-32.2031Z"/>
  </g>
  <g id="Regular-S" transform="matrix(1 0 0 1 1403.58 696)">
   <path d="M46.2402 4.15039C67.7734 4.15039 85.6934-13.7207 85.6934-35.2539C85.6934-56.7871 67.7246-74.6582 46.1914-74.6582C24.707-74.6582 6.83594-56.7871 6.83594-35.2539C6.83594-13.7207 24.7559 4.15039 46.2402 4.15039ZM20.6543-38.2812C20.6543-38.8184 20.8984-39.4531 21.3867-39.8438L43.5547-58.4961C45.2148-59.9121 47.4121-59.9121 49.0723-58.4961L59.2285-49.9512L59.2285-53.3691C59.2285-54.3945 59.9609-55.0293 60.9375-55.0293L63.3301-55.0293C64.3555-55.0293 65.0391-54.3945 65.0391-53.3691L65.0391-45.0684L71.2402-39.8438C71.7285-39.4531 71.9238-38.916 71.9238-38.1836C71.9238-37.0605 70.9961-36.2793 69.873-36.2793C69.1406-36.2793 68.6523-36.7188 68.0664-37.1582L47.0703-54.7852C46.582-55.127 46.0449-55.2246 45.5078-54.7852L24.4629-37.1582C23.9746-36.7188 23.4375-36.2793 22.7539-36.2793C21.4355-36.2793 20.6543-37.3047 20.6543-38.2812ZM27.5391-19.6777L27.5391-35.498L45.0195-50.1953C45.8008-50.8301 46.7285-50.8789 47.5098-50.1953L65.0391-35.498L65.0391-19.6777C65.0391-16.6992 63.1836-14.8438 60.0586-14.8438L32.5195-14.8438C29.3945-14.8438 27.5391-16.6992 27.5391-19.6777ZM40.8691-19.2871L51.7578-19.2871L51.7578-32.5195C51.7578-33.5449 51.1719-34.2285 50.0488-34.2285L42.5293-34.2285C41.5039-34.2285 40.8691-33.5449 40.8691-32.5195Z"/>
  </g>
  <g id="Light-S" transform="matrix(1 0 0 1 1107.6 696)">
   <path d="M45.5137 3.42383C66.6836 3.42383 84.2251-14.084 84.2251-35.2539C84.2251-56.4238 66.6499-73.9316 45.48-73.9316C24.3286-73.9316 6.83594-56.4238 6.83594-35.2539C6.83594-14.084 24.3623 3.42383 45.5137 3.42383ZM21.1992-38.6445C21.1992-39.1211 21.4131-39.6348 21.8408-39.98L42.707-57.5274C44.4429-58.9888 46.7158-58.9888 48.4365-57.5274L58.7441-48.8311L58.7441-52.8545C58.7441-53.6982 59.3403-54.2271 60.1353-54.2271L62.1948-54.2271C63.0234-54.2271 63.5859-53.6982 63.5859-52.8545L63.5859-44.7808L69.2725-39.98C69.7002-39.6348 69.8804-39.1885 69.8804-38.5771C69.8804-37.6357 69.104-36.9756 68.1777-36.9756C67.6118-36.9756 67.2295-37.3091 66.7344-37.6728L46.6616-54.543C45.916-55.127 45.2427-55.1943 44.4483-54.543L24.3115-37.6728C23.9141-37.3091 23.4829-36.9756 22.9355-36.9756C21.8745-36.9756 21.1992-37.8042 21.1992-38.6445ZM27.5239-20.1016L27.5239-37.0117L44.2778-51.0884C45.0894-51.7534 45.9717-51.7871 46.7832-51.0884L63.5859-36.9966L63.5859-20.1016C63.5859-17.3955 61.9273-15.7368 59.1504-15.7368L31.9746-15.7368C29.1826-15.7368 27.5239-17.3955 27.5239-20.1016ZM40.2939-19.3325L50.8345-19.3325L50.8345-32.5044C50.8345-33.4238 50.2788-34.0166 49.3071-34.0166L41.7876-34.0166C40.8833-34.0166 40.2939-33.4238 40.2939-32.5044Z"/>
  </g>
  <g id="Thin-S" transform="matrix(1 0 0 1 811.863 696)">
   <path d="M44.5527 2.4629C65.2422 2.4629 82.2832-14.5644 82.2832-35.2539C82.2832-55.9434 65.2285-72.9707 44.5391-72.9707C23.8281-72.9707 6.83594-55.9434 6.83594-35.2539C6.83594-14.5644 23.8418 2.4629 44.5527 2.4629ZM21.9199-39.125C21.9199-39.5215 22.0937-39.875 22.4414-40.1602L41.586-56.2461C43.4219-57.7676 45.7949-57.7676 47.5957-56.2461L58.1035-47.3496L58.1035-52.1738C58.1035-52.7774 58.5195-53.166 59.0742-53.166L60.6934-53.166C61.2617-53.166 61.6641-52.7774 61.6641-52.1738L61.6641-44.4004L66.67-40.1602C67.0176-39.875 67.1778-39.5488 67.1778-39.0976C67.1778-38.3965 66.6016-37.8965 65.9356-37.8965C65.5899-37.8965 65.3477-38.0898 64.9727-38.3535L46.1211-54.2227C45.0352-55.127 44.1817-55.1543 43.0469-54.2227L24.1113-38.3535C23.834-38.0898 23.543-37.8965 23.1758-37.8965C22.4551-37.8965 21.9199-38.4648 21.9199-39.125ZM27.5039-20.6621L27.5039-39.0136L43.2969-52.2695C44.1485-52.9746 44.9707-52.9883 45.8223-52.2695L61.6641-38.9785L61.6641-20.6621C61.6641-18.3164 60.2656-16.918 57.9492-16.918L31.2539-16.918C28.9023-16.918 27.5039-18.3164 27.5039-20.6621ZM39.5332-19.3926L49.6133-19.3926L49.6133-32.4844C49.6133-33.2637 49.0977-33.7363 48.3262-33.7363L40.8067-33.7363C40.0625-33.7363 39.5332-33.2637 39.5332-32.4844Z"/>
  </g>
  <g id="Ultralight-S" transform="matrix(1 0 0 1 515.649 696)">
   <path d="M44.0606 1.97072C64.5039 1.97072 81.2886-14.8105 81.2886-35.2539C81.2886-55.6973 64.5005-72.4785 44.0571-72.4785C23.5718-72.4785 6.83594-55.6973 6.83594-35.2539C6.83594-14.8105 23.5752 1.97072 44.0606 1.97072ZM22.289-39.3711C22.289-39.7266 22.4424-39.998 22.749-40.2524L41.0117-55.5899C42.8989-57.1421 45.3233-57.1421 47.1651-55.5899L57.7754-46.5908L57.7754-51.8252C57.7754-52.3057 58.0991-52.6226 58.5308-52.6226L59.9243-52.6226C60.3594-52.6226 60.6797-52.3057 60.6797-51.8252L60.6797-44.2056L65.337-40.2524C65.6436-39.998 65.7935-39.7334 65.7935-39.3642C65.7935-38.7861 65.3199-38.3681 64.7871-38.3681C64.5542-38.3681 64.3838-38.4897 64.0703-38.7021L45.8442-54.0586C44.584-55.127 43.6382-55.1338 42.3291-54.0586L24.0088-38.7021C23.793-38.4897 23.5737-38.3681 23.2988-38.3681C22.7524-38.3681 22.289-38.8032 22.289-39.3711ZM27.4937-20.9492L27.4937-40.039L42.7945-52.8745C43.6665-53.6001 44.458-53.6035 45.3301-52.8745L60.6797-39.9936L60.6797-20.9492C60.6797-18.7881 59.4146-17.5229 57.334-17.5229L30.8848-17.5229C28.7588-17.5229 27.4937-18.7881 27.4937-20.9492ZM39.1436-19.4233L48.9878-19.4233L48.9878-32.4741C48.9878-33.1816 48.4927-33.5928 47.8237-33.5928L40.3042-33.5928C39.6421-33.5928 39.1436-33.1816 39.1436-32.4741Z"/>
  </g>
 </g>
</svg>
